<?xml version="1.0" encoding="utf-8"?>
<!-- Generator: Adobe Illustrator 22.1.0, SVG Export Plug-In . SVG Version: 6.00 Build 0)  -->
<svg version="1.1" id="Layer_1" xmlns="http://www.w3.org/2000/svg" xmlns:xlink="http://www.w3.org/1999/xlink" x="0px" y="0px"
	 viewBox="0 0 300 300" style="enable-background:new 0 0 300 300;" xml:space="preserve">
<style type="text/css">
	.st0{fill:url(#SVGID_1_);}
	.st1{fill:url(#SVGID_2_);}
	.st2{fill:url(#SVGID_3_);}
	.st3{fill:url(#SVGID_4_);}
	.st4{fill:url(#SVGID_5_);}
	.st5{fill:url(#SVGID_6_);}
	.st6{fill:url(#SVGID_7_);}
	.st7{fill:url(#SVGID_8_);}
	.st8{fill:url(#SVGID_9_);}
	.st9{fill:url(#SVGID_10_);}
	.st10{fill:url(#SVGID_11_);}
	.st11{fill:url(#SVGID_12_);}
	.st12{fill:url(#SVGID_13_);}
</style>
<g>
	<g>
		<linearGradient id="SVGID_1_" gradientUnits="userSpaceOnUse" x1="159.4055" y1="65.5449" x2="245.5043" y2="148.7037">
			<stop  offset="0.1247" style="stop-color:#FFFFFF"/>
			<stop  offset="0.5047" style="stop-color:#2AD8FF"/>
			<stop  offset="0.621" style="stop-color:#2DD8FF"/>
			<stop  offset="0.6924" style="stop-color:#35DAFF"/>
			<stop  offset="0.7517" style="stop-color:#44DDFF"/>
			<stop  offset="0.8044" style="stop-color:#58E0FF"/>
			<stop  offset="0.8526" style="stop-color:#73E5FF"/>
			<stop  offset="0.8977" style="stop-color:#93EBFF"/>
			<stop  offset="0.9403" style="stop-color:#BAF2FF"/>
			<stop  offset="0.9799" style="stop-color:#E6FAFF"/>
			<stop  offset="1" style="stop-color:#FFFFFF"/>
		</linearGradient>
		<path class="st0" d="M149.5,79.8c38.8,3.7,87,25.3,92.4,68.7c0.5,4.2,7.2,4.2,6.6,0c-5.4-43.7-47.2-65.7-86.5-73.4
			c-4.1-0.8-8.3-1.5-12.5-1.9C145.2,72.7,145.2,79.4,149.5,79.8L149.5,79.8z"/>
	</g>
	<g>
		<linearGradient id="SVGID_2_" gradientUnits="userSpaceOnUse" x1="157.1062" y1="69.7595" x2="243.4562" y2="153.161">
			<stop  offset="1.972463e-03" style="stop-color:#FFFFFF"/>
			<stop  offset="8.950767e-02" style="stop-color:#EAFBFF"/>
			<stop  offset="0.6739" style="stop-color:#61E2FF"/>
			<stop  offset="0.9294" style="stop-color:#2AD8FF"/>
		</linearGradient>
		<path class="st1" d="M147.9,77c-0.3,0-0.7,0-1,0.1c-3,1.2-3.3,5.4,0,6.4c4.4,1.4,9.2,1.8,13.6,3c10.1,2.6,20,5.8,29.5,10.1
			c23.7,10.6,46.9,28.3,50.3,55.8c0.5,4.2,7.2,4.2,6.6,0c-3.6-28.6-25.3-48.1-50.2-60c-10.5-5-21.6-8.9-32.8-11.9
			c-5-1.3-10.3-1.9-15.3-3.4c0,2.1,0,4.3,0,6.4c-0.9,0.1-1.1,0.1-0.7,0.1C152.2,84,152.2,77.4,147.9,77L147.9,77z"/>
	</g>
	<g>
		
			<linearGradient id="SVGID_3_" gradientUnits="userSpaceOnUse" x1="33.306" y1="147.7968" x2="251.1154" y2="358.1689" gradientTransform="matrix(0.9877 0.1563 -0.1563 0.9877 39.4027 -140.6227)">
			<stop  offset="0.7765" style="stop-color:#000000"/>
			<stop  offset="0.7962" style="stop-color:#270500"/>
			<stop  offset="0.8398" style="stop-color:#791100"/>
			<stop  offset="0.8756" style="stop-color:#B61900"/>
			<stop  offset="0.9018" style="stop-color:#DB1E00"/>
			<stop  offset="0.9156" style="stop-color:#E92000"/>
		</linearGradient>
		<path class="st2" d="M154.5,251c-7.9-1.3-41.4-13.4-49.7-15.8c-29.8-8.7-30.7-3.7-50.3-15.9c-11.4-7.1-29-23.1-38.7-36.3
			C0.4,162-1.1,128.7,9.4,104.3c12.5-29,42.9-51.9,73.7-55.6c47.4-5.7,82.9,10.7,95,43.9l-52.3,19.1c-2.8-7.6-20.3-9.7-36.1-7.8
			c-11.4,1.4-24.5,11.4-29.3,22.4c-3.4,7.8-1.2,12.5,1.4,16c3.9,5.3,11.4,10.2,18.8,14.8c16.6,10.4,38.7,23.1,62,30
			c44.2,12.9,65.2-0.5,72.2-6.9c16-14.6,22.1-41,26.2-67.3l55,8.7c-5.8,36.3-31.2,72.4-59.9,98.5C211.7,242.8,195,257.4,154.5,251z"
			/>
	</g>
	<linearGradient id="SVGID_4_" gradientUnits="userSpaceOnUse" x1="18.516" y1="124.289" x2="274.7923" y2="176.1825">
		<stop  offset="0.1197" style="stop-color:#FF7B00"/>
		<stop  offset="0.4322" style="stop-color:#FFB302"/>
		<stop  offset="0.6771" style="stop-color:#FFD803"/>
		<stop  offset="0.8063" style="stop-color:#FFE603"/>
	</linearGradient>
	<ellipse class="st3" cx="132.5" cy="147.4" rx="98.6" ry="58.4"/>
	<g>
		<linearGradient id="SVGID_5_" gradientUnits="userSpaceOnUse" x1="151.5943" y1="73.8507" x2="236.5627" y2="155.9177">
			<stop  offset="0.1247" style="stop-color:#FFFFFF"/>
			<stop  offset="0.5047" style="stop-color:#2AD8FF"/>
			<stop  offset="0.621" style="stop-color:#2DD8FF"/>
			<stop  offset="0.6924" style="stop-color:#35DAFF"/>
			<stop  offset="0.7517" style="stop-color:#44DDFF"/>
			<stop  offset="0.8044" style="stop-color:#58E0FF"/>
			<stop  offset="0.8526" style="stop-color:#73E5FF"/>
			<stop  offset="0.8977" style="stop-color:#93EBFF"/>
			<stop  offset="0.9403" style="stop-color:#BAF2FF"/>
			<stop  offset="0.9799" style="stop-color:#E6FAFF"/>
			<stop  offset="1" style="stop-color:#FFFFFF"/>
		</linearGradient>
		<path class="st4" d="M141,88.7c39.7,2.4,86.3,23.1,93.7,66c0.7,4.2,7.1,2.4,6.4-1.8c-8-45.9-57.7-68.3-100.1-70.9
			C136.8,81.8,136.8,88.5,141,88.7L141,88.7z"/>
	</g>
	<g>
		<linearGradient id="SVGID_6_" gradientUnits="userSpaceOnUse" x1="144.9665" y1="76.7561" x2="230.4489" y2="159.3196">
			<stop  offset="0.1247" style="stop-color:#FFFFFF"/>
			<stop  offset="0.9156" style="stop-color:#2AD8FF"/>
		</linearGradient>
		<path class="st5" d="M133.7,92.3c39.8,1.8,88.3,21.3,95.9,64.8c0.7,4.2,7.1,2.4,6.4-1.8c-7.5-43.1-51-62.8-90.1-68.4
			c-4-0.6-8.1-1.1-12.2-1.3C129.5,85.5,129.5,92.1,133.7,92.3L133.7,92.3z"/>
	</g>
</g>
</svg>
