<?xml version="1.0" encoding="utf-8"?>
<!-- Generator: Adobe Illustrator 22.1.0, SVG Export Plug-In . SVG Version: 6.00 Build 0)  -->
<svg version="1.1" id="Layer_1" xmlns="http://www.w3.org/2000/svg" xmlns:xlink="http://www.w3.org/1999/xlink" x="0px" y="0px"
	 viewBox="0 0 300 300" style="enable-background:new 0 0 300 300;" xml:space="preserve">
<style type="text/css">
	.st0{fill:url(#SVGID_1_);}
	.st1{fill:url(#SVGID_2_);}
	.st2{fill:url(#SVGID_3_);}
	.st3{fill:url(#SVGID_4_);}
	.st4{fill:url(#SVGID_5_);}
	.st5{fill:url(#SVGID_6_);}
	.st6{fill:url(#SVGID_7_);}
	.st7{fill:url(#SVGID_8_);}
	.st8{fill:url(#SVGID_9_);}
	.st9{fill:url(#SVGID_10_);}
	.st10{fill:url(#SVGID_11_);}
	.st11{fill:url(#SVGID_12_);}
	.st12{fill:url(#SVGID_13_);}
	.st13{clip-path:url(#SVGID_15_);fill:url(#SVGID_16_);}
	.st14{clip-path:url(#SVGID_18_);fill:url(#SVGID_19_);}
</style>
<g>
	<linearGradient id="SVGID_1_" gradientUnits="userSpaceOnUse" x1="148.8436" y1="505.9001" x2="219.0993" y2="573.1788">
		<stop  offset="0.2573" style="stop-color:#000000"/>
		<stop  offset="0.6585" style="stop-color:#FF00C0"/>
	</linearGradient>
	<path class="st0" d="M198,461.1c0,0,35.8,121.2-47.1,138.7l-24-105.2l55.9-36.7L198,461.1z"/>
	<g>
		<linearGradient id="SVGID_2_" gradientUnits="userSpaceOnUse" x1="190.6157" y1="426.1589" x2="175.9855" y2="448.9513">
			<stop  offset="0.2573" style="stop-color:#FFFFFF"/>
			<stop  offset="0.6585" style="stop-color:#00A2D4"/>
		</linearGradient>
		<path class="st1" d="M158.2,440c8.5,0.7,16.9,1.1,25.3-0.9c3.8-0.9,9.6-2.4,13.5-1.6c1,0.2,6.8,2.3,6.8,2.2
			c-1.1,3.7,5.1,5.3,6.2,1.6c2.3-7.6-6.5-8.4-12-9.4c-5.5-1-11.9,0.4-17.2,1.7c-7.3,1.8-15.2,1-22.7,0.5
			C154.1,433.7,154.1,439.7,158.2,440L158.2,440z"/>
	</g>
	<linearGradient id="SVGID_3_" gradientUnits="userSpaceOnUse" x1="214.2887" y1="337.6248" x2="107.105" y2="504.6058">
		<stop  offset="0.2573" style="stop-color:#000000"/>
		<stop  offset="0.6585" style="stop-color:#FF00C0"/>
	</linearGradient>
	<path class="st2" d="M159,418.7c1.9-26.4,29.1-51.7,57.2-53.2c-70.9-5.8-61.1,2.4-88.5-58.3c1.7,28.9-5.6,46.7-30.8,63.4
		c-50.2,94.3-18.8,171.7,54,231.1c-0.6-27.3-13.1-89.4-1.2-110.2c4.5-7.9,16.6-16.7,43.7-6.7C213,457.8,206.7,398.5,159,418.7z
		 M166.8,446.7c-8.6,0-7.7-16.8,0.9-16.8C176.4,429.9,175.5,446.7,166.8,446.7z"/>
	<g>
		<linearGradient id="SVGID_4_" gradientUnits="userSpaceOnUse" x1="129.5853" y1="312.9522" x2="129.5853" y2="315.174">
			<stop  offset="3.415068e-02" style="stop-color:#EAD515"/>
			<stop  offset="0.2482" style="stop-color:#E7D315"/>
			<stop  offset="0.3796" style="stop-color:#DFCB14"/>
			<stop  offset="0.4887" style="stop-color:#D0BE13"/>
			<stop  offset="0.5856" style="stop-color:#BCAB11"/>
			<stop  offset="0.6745" style="stop-color:#A1930E"/>
			<stop  offset="0.7575" style="stop-color:#81750C"/>
			<stop  offset="0.8359" style="stop-color:#5A5208"/>
			<stop  offset="0.9087" style="stop-color:#2E2A04"/>
			<stop  offset="0.9741" style="stop-color:#000000"/>
		</linearGradient>
		<path class="st3" d="M126.9,317.5c2.8,0.2,5.6-0.1,7.7-2c1.2-1.1,1.2-3.1,0-4.2c-1.2-1.2-3.3-1.1-4.5,0c-0.3,0.2-0.3,0.3-0.1,0.1
			c-0.1,0-0.2,0.1-0.3,0.1c0.7-0.1-0.7,0.1-0.4,0.1c-0.6,0.1-1.7,0-2.4-0.1c-1.7-0.1-3.2,1.5-3.2,3
			C123.7,316.2,125.1,317.3,126.9,317.5L126.9,317.5z"/>
	</g>
	<g>
		<linearGradient id="SVGID_5_" gradientUnits="userSpaceOnUse" x1="130.5197" y1="318.4093" x2="130.5197" y2="321.1768">
			<stop  offset="3.415068e-02" style="stop-color:#EAD515"/>
			<stop  offset="0.2482" style="stop-color:#E7D315"/>
			<stop  offset="0.3796" style="stop-color:#DFCB14"/>
			<stop  offset="0.4887" style="stop-color:#D0BE13"/>
			<stop  offset="0.5856" style="stop-color:#BCAB11"/>
			<stop  offset="0.6745" style="stop-color:#A1930E"/>
			<stop  offset="0.7575" style="stop-color:#81750C"/>
			<stop  offset="0.8359" style="stop-color:#5A5208"/>
			<stop  offset="0.9087" style="stop-color:#2E2A04"/>
			<stop  offset="0.9741" style="stop-color:#000000"/>
		</linearGradient>
		<path class="st4" d="M127,323.5c3,0.2,6.3-0.4,8.7-2c1.4-0.9,2.1-2.6,1.1-4.1c-0.8-1.3-3-2-4.4-1.1c-1.7,1.1-3.5,1.4-5.5,1.2
			c-1.7-0.1-3.2,1.5-3.2,3C123.8,322.3,125.2,323.4,127,323.5L127,323.5z"/>
	</g>
	<g>
		<linearGradient id="SVGID_6_" gradientUnits="userSpaceOnUse" x1="131.3649" y1="324.1168" x2="131.3649" y2="327.1009">
			<stop  offset="3.415068e-02" style="stop-color:#EAD515"/>
			<stop  offset="0.2482" style="stop-color:#E7D315"/>
			<stop  offset="0.3796" style="stop-color:#DFCB14"/>
			<stop  offset="0.4887" style="stop-color:#D0BE13"/>
			<stop  offset="0.5856" style="stop-color:#BCAB11"/>
			<stop  offset="0.6745" style="stop-color:#A1930E"/>
			<stop  offset="0.7575" style="stop-color:#81750C"/>
			<stop  offset="0.8359" style="stop-color:#5A5208"/>
			<stop  offset="0.9087" style="stop-color:#2E2A04"/>
			<stop  offset="0.9741" style="stop-color:#000000"/>
		</linearGradient>
		<path class="st5" d="M126.9,329.5c3.7,0,7.2-0.8,10.5-2.2c1.6-0.7,2-2.8,1.1-4.1c-0.9-1.5-2.8-1.7-4.4-1.1c-2.3,1-4.8,1.4-7.3,1.4
			C122.8,323.5,122.8,329.5,126.9,329.5L126.9,329.5z"/>
	</g>
	<g>
		<linearGradient id="SVGID_7_" gradientUnits="userSpaceOnUse" x1="157.0899" y1="409.4438" x2="115.3568" y2="474.4594">
			<stop  offset="0.2573" style="stop-color:#FFFFFF"/>
			<stop  offset="0.6585" style="stop-color:#00A2D4"/>
		</linearGradient>
		<path class="st6" d="M65.3,445.2c25.2,6.8,51.5,13.1,77.7,15.4c12.2,1.1,25.1-0.8,37.1-3.1c11-2,21.4-6.1,28.7-14.3
			c2.6-2.9-1.9-7.2-4.5-4.2c-7.7,8.7-18.7,11.7-30.2,13.5c-12.4,1.9-24.5,3.2-37,1.5c-23.7-3.2-47.1-8.3-70.1-14.5
			C63.1,438.3,61.4,444.1,65.3,445.2L65.3,445.2z"/>
	</g>
</g>
<g>
	
		<linearGradient id="SVGID_8_" gradientUnits="userSpaceOnUse" x1="0.1437" y1="0.6568" x2="1.7726" y2="0.6568" gradientTransform="matrix(37.1992 0 0 -37.1992 197.9952 183.8742)">
		<stop  offset="0" style="stop-color:#525252"/>
		<stop  offset="8.853537e-02" style="stop-color:#656565"/>
		<stop  offset="0.4088" style="stop-color:#A7A7A7"/>
		<stop  offset="0.6782" style="stop-color:#D7D7D7"/>
		<stop  offset="0.8834" style="stop-color:#F4F4F4"/>
		<stop  offset="1" style="stop-color:#FFFFFF"/>
	</linearGradient>
	<path class="st7" d="M233.6,246.7c-9.2,0-22.2-33.2-22.2-87.3c0-54.1,12.9-87.3,22.2-87.3c9.2,0,22.2,33.2,22.2,87.3
		C255.8,213.5,242.9,246.7,233.6,246.7 M233.6,64c-9.1,0-16.9,10.3-22.5,29.7c-5.1,17.6-7.8,40.9-7.8,65.7c0,24.8,2.8,48.1,7.8,65.7
		c5.6,19.4,13.3,29.7,22.5,29.7c9.1,0,16.9-10.3,22.5-29.7c5.1-17.6,7.8-40.9,7.8-65.7c0-24.8-2.8-48.1-7.8-65.7
		C250.5,74.3,242.8,64,233.6,64"/>
	
		<linearGradient id="SVGID_9_" gradientUnits="userSpaceOnUse" x1="-1.4043" y1="0.6959" x2="0.2246" y2="0.6959" gradientTransform="matrix(33.8517 0 0 -33.8517 113.897 185.2706)">
		<stop  offset="0" style="stop-color:#000000"/>
		<stop  offset="5.031580e-02" style="stop-color:#101010"/>
		<stop  offset="0.3218" style="stop-color:#646464"/>
		<stop  offset="0.5619" style="stop-color:#A6A6A6"/>
		<stop  offset="0.7618" style="stop-color:#D6D6D6"/>
		<stop  offset="0.9137" style="stop-color:#F4F4F4"/>
		<stop  offset="1" style="stop-color:#FFFFFF"/>
	</linearGradient>
	<path class="st8" d="M70.4,161.7h4.1c0-23.4,2.6-44.6,6.7-59.6c2-7.5,4.5-13.5,7-17.2c1.2-1.9,2.4-3.2,3.4-4c1-0.7,1.7-0.9,2.3-0.9
		c0.6,0,1.3,0.2,2.3,0.9c0.9,0.6,1.9,1.7,3,3.3c1.9,2.7,3.8,6.7,5.5,11.7c2.6,7.5,4.8,17.3,6.3,28.5c1.5,11.2,2.4,23.9,2.4,37.4
		c0,23.4-2.6,44.6-6.7,59.6c-2,7.5-4.5,13.5-7,17.2c-1.2,1.9-2.4,3.2-3.4,4c-1,0.7-1.7,0.9-2.3,0.9c-0.6,0-1.3-0.2-2.3-0.9
		c-0.9-0.6-1.9-1.7-3-3.3c-1.9-2.7-3.8-6.7-5.5-11.7c-2.6-7.5-4.8-17.3-6.3-28.5c-1.5-11.2-2.4-23.9-2.4-37.4H70.4h-4.1
		c0,24,2.6,45.7,7,61.7c2.2,8,4.8,14.6,8,19.5c1.6,2.5,3.3,4.5,5.4,6c2,1.5,4.5,2.6,7.2,2.6c2.7,0,5.1-1,7.2-2.6
		c1.8-1.4,3.4-3.1,4.8-5.1c2.5-3.6,4.6-8.2,6.5-13.7c2.8-8.2,5.1-18.4,6.7-30.1c1.6-11.6,2.4-24.7,2.4-38.4c0-24-2.6-45.7-7-61.7
		c-2.2-8-4.8-14.6-8-19.5c-1.6-2.5-3.3-4.5-5.4-6c-2-1.5-4.5-2.6-7.2-2.6c-2.7,0-5.1,1-7.2,2.6c-1.8,1.4-3.4,3.1-4.8,5.1
		c-2.5,3.6-4.6,8.2-6.5,13.7c-2.8,8.2-5.1,18.4-6.7,30.1c-1.6,11.6-2.4,24.7-2.4,38.4H70.4z"/>
	
		<linearGradient id="SVGID_10_" gradientUnits="userSpaceOnUse" x1="0.1437" y1="0.6568" x2="1.7726" y2="0.6568" gradientTransform="matrix(37.1992 0 0 -37.1992 197.9952 183.8742)">
		<stop  offset="0" style="stop-color:#000000"/>
		<stop  offset="5.031580e-02" style="stop-color:#101010"/>
		<stop  offset="0.3218" style="stop-color:#646464"/>
		<stop  offset="0.5619" style="stop-color:#A6A6A6"/>
		<stop  offset="0.7618" style="stop-color:#D6D6D6"/>
		<stop  offset="0.9137" style="stop-color:#F4F4F4"/>
		<stop  offset="1" style="stop-color:#FFFFFF"/>
	</linearGradient>
	<path class="st9" d="M259.9,159.4h-4.1c0,24.9-2.9,47.4-7.5,63.5c-2.3,8-5,14.4-7.8,18.4c-1.4,2-2.7,3.5-3.9,4.3
		c-1.2,0.8-2.1,1.1-2.9,1.1c-0.8,0-1.7-0.3-2.9-1.1c-1-0.7-2.2-1.9-3.4-3.6c-2.1-2.9-4.2-7.1-6.2-12.5c-2.9-8-5.3-18.4-7-30.4
		c-1.7-12-2.7-25.5-2.7-39.8c0-24.9,2.9-47.4,7.5-63.5c2.3-8,5-14.4,7.8-18.4c1.4-2,2.7-3.5,3.9-4.3c1.2-0.8,2.1-1.1,2.9-1.1
		c0.8,0,1.7,0.3,2.9,1.1c1,0.7,2.2,1.9,3.4,3.6c2.1,2.9,4.2,7.1,6.2,12.5c2.9,8,5.3,18.4,7,30.4c1.7,12,2.7,25.5,2.7,39.8H259.9h4.1
		c0-25.5-3-48.7-7.8-65.7c-2.5-8.5-5.4-15.5-8.9-20.7c-1.8-2.6-3.7-4.7-5.9-6.4c-2.2-1.6-4.9-2.6-7.6-2.6c-2.8,0-5.4,1-7.6,2.6
		c-2,1.4-3.7,3.2-5.3,5.4c-2.8,3.8-5.1,8.7-7.2,14.5c-3.1,8.7-5.7,19.6-7.4,32c-1.8,12.4-2.7,26.2-2.7,40.9c0,25.5,3,48.7,7.8,65.7
		c2.5,8.5,5.4,15.5,8.9,20.7c1.8,2.6,3.7,4.7,5.9,6.4c2.2,1.6,4.9,2.6,7.6,2.6c2.8,0,5.4-1,7.6-2.6c2-1.4,3.7-3.2,5.3-5.4
		c2.8-3.8,5.1-8.7,7.2-14.5c3.1-8.7,5.7-19.6,7.4-32c1.8-12.4,2.7-26.2,2.7-40.9H259.9z"/>
	
		<linearGradient id="SVGID_11_" gradientUnits="userSpaceOnUse" x1="-0.3534" y1="0.1831" x2="1.2755" y2="0.1831" gradientTransform="matrix(177.4183 -49.5513 -49.5513 -177.4183 75.3676 198.9128)">
		<stop  offset="0" style="stop-color:#000000"/>
		<stop  offset="0.4893" style="stop-color:#000000"/>
		<stop  offset="0.845" style="stop-color:#43C129"/>
		<stop  offset="1" style="stop-color:#43C129"/>
	</linearGradient>
	<path class="st10" d="M5.3,178.9c-0.9,18.2,3.3,29.3,26,28.7c5.2-0.1,20.5-8.9,24.3-13c13-16.3,27.2-13.9,43.5-9
		c33.9,11.3,72.5,29,106.8,15.7c0.7-0.3,1.4-0.6,2-0.9c3.3-1.8,6.6-3.9,9.8-6c10.6-7,21.1-14.8,33-18.9c9.5-3.3,19.7-4.1,28.9-8.2
		c9.2-4.1,17.4-13,16.1-23c-1.6-12.6-18.2-23.3-8.6-36.4c1-1.4,2.2-2.6,3.2-4s1.5-3.2,1.1-4.9c-0.4-1.6-1.7-2.8-3.2-3.4
		c-0.2-0.1-0.3-0.1-0.5-0.2c-4.4-1.4-8.3,1.1-12,3.2c-10.6,6.2-23.4,10.1-35.2,6.8c-5.6-1.6-10.8-4.7-16.5-5.6
		c-7-1.1-13.4,1.4-18.1,6.6c-3.5,3.8-5.3,17.4-11.8,16.1c-9.3-1.9-19.1-4.1-28.7-5.6c-5.5-0.8-12.1-3-17.5-0.9
		c-5,2-8.2,7.1-10.6,12.7c-0.9,2.2-1.7,4.4-2.4,6.6c-3.4,10.2-15.7,14.6-24.5,8.5c-15.8-10.9-23-29.8-38.5-39.3
		C50,90.4,26.4,102,11.9,117.2c-6.2,6.5-9.4,15.3-8.8,24.3L5.3,178.9z M74.1,146c-6.1-7.2-5.3-12.4-2.3-14.6
		c2.5-2.7,6.5-3.1,12.1,3.1c5.6,6.1,7.8,13.2,5.7,16.5C87.5,154.4,80.9,153.2,74.1,146z M200.6,186.5c-10.5,2.9-15.6-19.3-5-22.3
		C206.1,161.3,211.2,183.5,200.6,186.5z"/>
	
		<linearGradient id="SVGID_12_" gradientUnits="userSpaceOnUse" x1="-0.9977" y1="3.9386" x2="0.6309" y2="3.9386" gradientTransform="matrix(8.6103 -8.6103 -9.184 -9.4086 118.3063 177.4643)">
		<stop  offset="0" style="stop-color:#000000"/>
		<stop  offset="5.169013e-02" style="stop-color:#000000"/>
		<stop  offset="0.845" style="stop-color:#43C129"/>
		<stop  offset="1" style="stop-color:#43C129"/>
	</linearGradient>
	<path class="st11" d="M86.9,136.7l-1.2,1.1c2.5,2.9,3.7,6.3,3.7,8.9c0,0.9-0.1,1.7-0.4,2.4c-0.3,0.7-0.6,1.2-1.1,1.6
		c-0.8,0.6-1.7,1-3,1c-1.3,0-3-0.4-4.6-1.3c-1.6-0.9-3.3-2.2-4.7-3.9c-2.5-2.9-3.7-6.3-3.7-8.9c0-0.9,0.1-1.7,0.4-2.4
		c0.3-0.7,0.6-1.2,1.1-1.6c0.8-0.6,1.7-1,3-1c1.3,0,3,0.4,4.6,1.3c1.6,0.9,3.3,2.2,4.7,3.9L86.9,136.7l1.2-1.1
		c-1.7-2-3.7-3.6-5.7-4.7c-2-1.1-4.1-1.7-6.2-1.7c-1.8,0-3.6,0.5-5.1,1.7c-0.9,0.8-1.6,1.8-2.1,2.9c-0.4,1.1-0.6,2.3-0.6,3.6
		c0,3.6,1.6,7.5,4.5,11c1.7,2,3.6,3.6,5.7,4.7c2,1.1,4.1,1.7,6.2,1.7c1.8,0,3.6-0.5,5.1-1.7c0.9-0.8,1.6-1.8,2.1-2.9
		c0.4-1.1,0.6-2.3,0.6-3.6c0-3.6-1.6-7.5-4.5-11L86.9,136.7z"/>
	
		<linearGradient id="SVGID_13_" gradientUnits="userSpaceOnUse" x1="0.3534" y1="1.3772" x2="1.9823" y2="1.3772" gradientTransform="matrix(11.6895 -3.2648 -3.2648 -11.6895 188.9129 195.2941)">
		<stop  offset="0" style="stop-color:#000000"/>
		<stop  offset="0.4893" style="stop-color:#000000"/>
		<stop  offset="0.845" style="stop-color:#43C129"/>
		<stop  offset="1" style="stop-color:#43C129"/>
	</linearGradient>
	<path class="st12" d="M206,173.2l-1.6,0.4c0.4,1.4,0.6,2.7,0.6,4c0,2-0.5,3.8-1.2,5.2c-0.8,1.3-1.8,2.2-3,2.5
		c-0.4,0.1-0.8,0.2-1.1,0.2c-1.4,0-3.1-0.7-4.5-2.2c-1.5-1.4-2.7-3.6-3.5-6.1c-0.4-1.4-0.6-2.7-0.6-4c0-2,0.5-3.8,1.2-5.2
		c0.8-1.3,1.8-2.2,3-2.5c0.4-0.1,0.8-0.2,1.1-0.2c1.4,0,3.1,0.7,4.5,2.2c1.5,1.4,2.7,3.6,3.5,6.1L206,173.2l1.6-0.4
		c-0.9-3-2.4-5.6-4.3-7.5c-1.9-1.9-4.3-3.1-6.8-3.1c-0.7,0-1.4,0.1-2,0.3c-2.2,0.6-3.8,2.1-4.9,4c-1.1,1.9-1.6,4.3-1.6,6.8
		c0,1.6,0.2,3.2,0.7,4.9c0.9,3,2.4,5.6,4.3,7.5c1.9,1.9,4.3,3.1,6.8,3.1c0.7,0,1.4-0.1,2-0.3c2.2-0.6,3.8-2.1,4.9-4
		c1.1-1.9,1.6-4.3,1.6-6.8c0-1.6-0.2-3.2-0.7-4.9L206,173.2z"/>
	<g>
		<defs>
			<path id="SVGID_14_" d="M218,99.6c-0.2,0.3-2.3,10.2-2.6,11.6c-0.3,1.4-1.5,9.1-1.5,9.1c-0.3,1.6-1.1,8.9-1.2,10.6
				c-0.2,1.7-0.7,8.9-0.7,8.9s-0.4,7.3-0.5,8.9c-0.1,1.6-0.1,13.7-0.1,15.6c0,1.9,0.4,11.1,0.6,15.7c0.2,4.6,1.7,16.9,1.7,16.9
				c-0.4,0.5-2.8,2.2-4.8,3.2c-1.5,0.8-2.8,1-2.8,1c-0.5-3.1-1.6-14.2-2-17.8c-0.3-3.7-0.8-15.4-0.8-18.1c-0.1-2.7,0-11.6,0.1-16.4
				c0.1-4.8,0.7-13,0.7-13s1-10.9,1.6-15.6c0.6-4.6,2.9-16.7,2.9-16.7s1.1-1.2,3.6-2.6c2.5-1.4,5.6-1.3,5.6-1.3L218,99.6"/>
		</defs>
		<clipPath id="SVGID_15_">
			<use xlink:href="#SVGID_14_"  style="overflow:visible;"/>
		</clipPath>
		
			<linearGradient id="SVGID_16_" gradientUnits="userSpaceOnUse" x1="0.1437" y1="0.6568" x2="1.7726" y2="0.6568" gradientTransform="matrix(37.1992 0 0 -37.1992 197.9952 183.8742)">
			<stop  offset="0" style="stop-color:#000000"/>
			<stop  offset="5.031580e-02" style="stop-color:#101010"/>
			<stop  offset="0.3218" style="stop-color:#646464"/>
			<stop  offset="0.5619" style="stop-color:#A6A6A6"/>
			<stop  offset="0.7618" style="stop-color:#D6D6D6"/>
			<stop  offset="0.9137" style="stop-color:#F4F4F4"/>
			<stop  offset="1" style="stop-color:#FFFFFF"/>
		</linearGradient>
		<path class="st13" d="M233.6,254.8c-9.1,0-16.9-10.3-22.5-29.7c-5.1-17.6-7.8-40.9-7.8-65.7s2.8-48.1,7.8-65.7
			c5.6-19.4,13.3-29.7,22.5-29.7s16.9,10.3,22.5,29.7c5.1,17.6,7.8,40.9,7.8,65.7s-2.8,48.1-7.8,65.7
			C250.5,244.6,242.8,254.8,233.6,254.8z M233.6,72.2c-9.2,0-22.2,33.2-22.2,87.3s12.9,87.3,22.2,87.3s22.2-33.2,22.2-87.3
			S242.9,72.2,233.6,72.2z"/>
	</g>
	<g>
		<defs>
			<path id="SVGID_17_" d="M79.3,110.2c0.2,0.3-0.5,2.1-0.8,3.5c-0.3,1.4-1.5,9.1-1.5,9.1c-0.3,1.6-1.1,8.9-1.3,10.6
				c-0.2,1.7-0.7,8.9-0.7,8.9s-0.4,7.3-0.5,8.9c-0.1,1.6-0.1,13.7-0.1,15.6c0,1.9,0.4,11.1,0.6,15.7c0.2,4.6,1.7,16.9,1.7,16.9
				c-0.4,0.5-2.9,2.2-5,3.2c-1.6,0.8-2.9,1-2.9,1c-0.5-3.1-1.3-14.3-1.6-18c-0.3-3.7-1.3-15.3-1.3-18c-0.1-2.7,0-11.6,0.1-16.4
				c0.1-4.8,0.7-13,0.7-13s1.1-10.9,1.7-15.6c0.6-4.6,3.8-18,3.8-18S77.7,108.3,79.3,110.2"/>
		</defs>
		<clipPath id="SVGID_18_">
			<use xlink:href="#SVGID_17_"  style="overflow:visible;"/>
		</clipPath>
		
			<linearGradient id="SVGID_19_" gradientUnits="userSpaceOnUse" x1="-1.2317" y1="0.6056" x2="0.3971" y2="0.6056" gradientTransform="matrix(38.7463 0 0 -38.7463 113.5972 185.4177)">
			<stop  offset="0" style="stop-color:#000000"/>
			<stop  offset="5.031580e-02" style="stop-color:#101010"/>
			<stop  offset="0.3218" style="stop-color:#646464"/>
			<stop  offset="0.5619" style="stop-color:#A6A6A6"/>
			<stop  offset="0.7618" style="stop-color:#D6D6D6"/>
			<stop  offset="0.9137" style="stop-color:#F4F4F4"/>
			<stop  offset="1" style="stop-color:#FFFFFF"/>
		</linearGradient>
		<path class="st14" d="M120.8,96.3c-5.8-19.4-13.9-29.7-23.4-29.7c-9.5,0-17.6,10.3-23.4,29.7c-5.3,17.6-8.2,40.9-8.2,65.7
			c0,7.9,0.7,15.6,1.3,23.1c0.1,0-0.2-0.1,0-0.1c0.6-0.3,1.5-0.6,2.7-0.6c0.2,0,0.4,0,0.6,0c1.6-0.7,3.3-1.2,4.7-1.5
			c-0.5-6.6-0.8-13.5-0.8-20.9c0-54.1,13.4-87.3,23.1-87.3c9.6,0,23.1,33.2,23.1,87.3c0,54.1-13.4,87.3-23.1,87.3
			c-6.9,0-15.9-17.2-20.3-47.1c-1,1-2.1,2-3.2,2.9c-0.5,0.4-2.8,0.8-4.7,0.8c1.3,7.9,2.9,15.3,4.9,21.8
			c5.8,19.4,13.9,29.7,23.4,29.7c9.5,0,17.6-10.3,23.4-29.7c5.3-17.6,8.2-40.9,8.2-65.7C129,137.2,126.1,113.9,120.8,96.3z"/>
	</g>
</g>
</svg>
