<?xml version="1.0" encoding="utf-8"?>
<!-- Generator: Adobe Illustrator 22.1.0, SVG Export Plug-In . SVG Version: 6.00 Build 0)  -->
<svg version="1.1" id="Layer_1" xmlns="http://www.w3.org/2000/svg" xmlns:xlink="http://www.w3.org/1999/xlink" x="0px" y="0px"
	 viewBox="0 0 300 300" style="enable-background:new 0 0 300 300;" xml:space="preserve">
<style type="text/css">
	.st0{fill:url(#SVGID_1_);}
	.st1{fill:url(#SVGID_2_);}
	.st2{fill:url(#SVGID_3_);}
	.st3{fill:url(#SVGID_4_);}
	.st4{fill:url(#SVGID_5_);}
	.st5{fill:url(#SVGID_6_);}
	.st6{fill:url(#SVGID_7_);}
</style>
<g>
	<linearGradient id="SVGID_1_" gradientUnits="userSpaceOnUse" x1="154.6237" y1="201.4996" x2="224.8794" y2="268.7783">
		<stop  offset="0.2573" style="stop-color:#000000"/>
		<stop  offset="0.6585" style="stop-color:#FF00C0"/>
	</linearGradient>
	<path class="st0" d="M203.8,156.7c0,0,35.8,121.2-47.1,138.7l-24-105.2l55.9-36.7L203.8,156.7z"/>
	<g>
		<linearGradient id="SVGID_2_" gradientUnits="userSpaceOnUse" x1="196.3958" y1="121.7583" x2="181.7656" y2="144.5507">
			<stop  offset="0.2573" style="stop-color:#FFFFFF"/>
			<stop  offset="0.6585" style="stop-color:#00A2D4"/>
		</linearGradient>
		<path class="st1" d="M164,135.6c8.5,0.7,16.9,1.1,25.3-0.9c3.8-0.9,9.6-2.4,13.5-1.6c1,0.2,6.8,2.3,6.8,2.2
			c-1.1,3.7,5.1,5.3,6.2,1.6c2.3-7.6-6.5-8.4-12-9.4c-5.5-1-11.9,0.4-17.2,1.7c-7.3,1.8-15.2,1-22.7,0.5
			C159.9,129.3,159.9,135.3,164,135.6L164,135.6z"/>
	</g>
	<linearGradient id="SVGID_3_" gradientUnits="userSpaceOnUse" x1="220.0689" y1="33.2243" x2="112.8851" y2="200.2052">
		<stop  offset="0.2573" style="stop-color:#000000"/>
		<stop  offset="0.6585" style="stop-color:#FF00C0"/>
	</linearGradient>
	<path class="st2" d="M164.8,114.3c1.9-26.4,29.1-51.7,57.2-53.2c-70.9-5.8-61.1,2.4-88.5-58.3c1.7,28.9-5.6,46.7-30.8,63.4
		c-50.2,94.3-18.8,171.7,54,231.1c-0.6-27.3-13.1-89.4-1.2-110.2c4.5-7.9,16.6-16.7,43.7-6.7C218.8,153.4,212.5,94.1,164.8,114.3z
		 M172.6,142.3c-8.6,0-7.7-16.8,0.9-16.8C182.1,125.5,181.3,142.3,172.6,142.3z"/>
	<g>
		<linearGradient id="SVGID_4_" gradientUnits="userSpaceOnUse" x1="135.3654" y1="8.5517" x2="135.3654" y2="10.7734">
			<stop  offset="3.415068e-02" style="stop-color:#EAD515"/>
			<stop  offset="0.2482" style="stop-color:#E7D315"/>
			<stop  offset="0.3796" style="stop-color:#DFCB14"/>
			<stop  offset="0.4887" style="stop-color:#D0BE13"/>
			<stop  offset="0.5856" style="stop-color:#BCAB11"/>
			<stop  offset="0.6745" style="stop-color:#A1930E"/>
			<stop  offset="0.7575" style="stop-color:#81750C"/>
			<stop  offset="0.8359" style="stop-color:#5A5208"/>
			<stop  offset="0.9087" style="stop-color:#2E2A04"/>
			<stop  offset="0.9741" style="stop-color:#000000"/>
		</linearGradient>
		<path class="st3" d="M132.6,13.1c2.8,0.2,5.6-0.1,7.7-2c1.2-1.1,1.2-3.1,0-4.2c-1.2-1.2-3.3-1.1-4.5,0c-0.3,0.2-0.3,0.3-0.1,0.1
			c-0.1,0-0.2,0.1-0.3,0.1c0.7-0.1-0.7,0.1-0.4,0.1c-0.6,0.1-1.7,0-2.4-0.1c-1.7-0.1-3.2,1.5-3.2,3
			C129.5,11.8,130.9,12.9,132.6,13.1L132.6,13.1z"/>
	</g>
	<g>
		<linearGradient id="SVGID_5_" gradientUnits="userSpaceOnUse" x1="136.2998" y1="14.0088" x2="136.2998" y2="16.7762">
			<stop  offset="3.415068e-02" style="stop-color:#EAD515"/>
			<stop  offset="0.2482" style="stop-color:#E7D315"/>
			<stop  offset="0.3796" style="stop-color:#DFCB14"/>
			<stop  offset="0.4887" style="stop-color:#D0BE13"/>
			<stop  offset="0.5856" style="stop-color:#BCAB11"/>
			<stop  offset="0.6745" style="stop-color:#A1930E"/>
			<stop  offset="0.7575" style="stop-color:#81750C"/>
			<stop  offset="0.8359" style="stop-color:#5A5208"/>
			<stop  offset="0.9087" style="stop-color:#2E2A04"/>
			<stop  offset="0.9741" style="stop-color:#000000"/>
		</linearGradient>
		<path class="st4" d="M132.7,19.1c3,0.2,6.3-0.4,8.7-2c1.4-0.9,2.1-2.6,1.1-4.1c-0.8-1.3-3-2-4.4-1.1c-1.7,1.1-3.5,1.4-5.5,1.2
			c-1.7-0.1-3.2,1.5-3.2,3C129.5,17.9,131,19,132.7,19.1L132.7,19.1z"/>
	</g>
	<g>
		<linearGradient id="SVGID_6_" gradientUnits="userSpaceOnUse" x1="137.145" y1="19.7162" x2="137.145" y2="22.7003">
			<stop  offset="3.415068e-02" style="stop-color:#EAD515"/>
			<stop  offset="0.2482" style="stop-color:#E7D315"/>
			<stop  offset="0.3796" style="stop-color:#DFCB14"/>
			<stop  offset="0.4887" style="stop-color:#D0BE13"/>
			<stop  offset="0.5856" style="stop-color:#BCAB11"/>
			<stop  offset="0.6745" style="stop-color:#A1930E"/>
			<stop  offset="0.7575" style="stop-color:#81750C"/>
			<stop  offset="0.8359" style="stop-color:#5A5208"/>
			<stop  offset="0.9087" style="stop-color:#2E2A04"/>
			<stop  offset="0.9741" style="stop-color:#000000"/>
		</linearGradient>
		<path class="st5" d="M132.7,25.1c3.7,0,7.2-0.8,10.5-2.2c1.6-0.7,2-2.8,1.1-4.1c-0.9-1.5-2.8-1.7-4.4-1.1c-2.3,1-4.8,1.4-7.3,1.4
			C128.5,19.1,128.5,25.1,132.7,25.1L132.7,25.1z"/>
	</g>
	<g>
		<linearGradient id="SVGID_7_" gradientUnits="userSpaceOnUse" x1="162.87" y1="105.0432" x2="121.137" y2="170.0589">
			<stop  offset="0.2573" style="stop-color:#FFFFFF"/>
			<stop  offset="0.6585" style="stop-color:#00A2D4"/>
		</linearGradient>
		<path class="st6" d="M71.1,140.8c25.2,6.8,51.5,13.1,77.7,15.4c12.2,1.1,25.1-0.8,37.1-3.1c11-2,21.4-6.1,28.7-14.3
			c2.6-2.9-1.9-7.2-4.5-4.2c-7.7,8.7-18.7,11.7-30.2,13.5c-12.4,1.9-24.5,3.2-37,1.5c-23.7-3.2-47.1-8.3-70.1-14.5
			C68.8,133.9,67.1,139.7,71.1,140.8L71.1,140.8z"/>
	</g>
</g>
</svg>
