<?xml version="1.0" encoding="utf-8"?>
<!-- Generator: Adobe Illustrator 22.1.0, SVG Export Plug-In . SVG Version: 6.00 Build 0)  -->
<svg version="1.1" id="Layer_1" xmlns="http://www.w3.org/2000/svg" xmlns:xlink="http://www.w3.org/1999/xlink" x="0px" y="0px"
	 viewBox="0 0 300 300" style="enable-background:new 0 0 300 300;" xml:space="preserve">
<style type="text/css">
	.st0{fill:url(#SVGID_1_);}
	.st1{fill:url(#SVGID_2_);}
	.st2{fill:url(#SVGID_3_);}
	.st3{fill:url(#SVGID_4_);}
	.st4{fill:url(#SVGID_5_);}
	.st5{fill:url(#SVGID_6_);}
	.st6{fill:url(#SVGID_7_);}
	.st7{fill:url(#SVGID_8_);}
	.st8{fill:url(#SVGID_9_);}
	.st9{fill:url(#SVGID_10_);}
	.st10{fill:url(#SVGID_11_);}
	.st11{fill:url(#SVGID_12_);}
	.st12{fill:url(#SVGID_13_);}
	.st13{fill:url(#SVGID_14_);}
	.st14{fill:url(#SVGID_15_);}
	.st15{fill:url(#SVGID_16_);}
</style>
<g>
	<linearGradient id="SVGID_1_" gradientUnits="userSpaceOnUse" x1="14.7151" y1="173.6708" x2="288.5593" y2="131.665">
		<stop  offset="3.626578e-03" style="stop-color:#FFFFFF"/>
		<stop  offset="8.962225e-02" style="stop-color:#FEF2C1"/>
		<stop  offset="0.1782" style="stop-color:#FCE689"/>
		<stop  offset="0.2643" style="stop-color:#FBDC5A"/>
		<stop  offset="0.3458" style="stop-color:#FAD435"/>
		<stop  offset="0.4215" style="stop-color:#FACF1B"/>
		<stop  offset="0.4894" style="stop-color:#F9CB0C"/>
		<stop  offset="0.5427" style="stop-color:#F9CA06"/>
		<stop  offset="0.6007" style="stop-color:#F9CB0A"/>
		<stop  offset="0.6588" style="stop-color:#F9CD16"/>
		<stop  offset="0.7169" style="stop-color:#FAD22A"/>
		<stop  offset="0.7752" style="stop-color:#FBD846"/>
		<stop  offset="0.8335" style="stop-color:#FBDF6B"/>
		<stop  offset="0.8919" style="stop-color:#FCE997"/>
		<stop  offset="0.9492" style="stop-color:#FEF4CB"/>
		<stop  offset="1" style="stop-color:#FFFFFF"/>
	</linearGradient>
	<circle class="st0" cx="150" cy="152.9" r="138.5"/>
	<g>
		
			<linearGradient id="SVGID_2_" gradientUnits="userSpaceOnUse" x1="252.9503" y1="710.123" x2="333.7905" y2="710.123" gradientTransform="matrix(0.2968 0.9549 -0.9549 0.2968 711.2308 -454.4835)">
			<stop  offset="0.2573" style="stop-color:#FFFFFF"/>
			<stop  offset="1" style="stop-color:#00A0E0"/>
		</linearGradient>
		<path class="st1" d="M114.8,70.3c-32.3-5.2-56-24.5-53-43.2S93.3-2.5,125.6,2.6s56,24.5,53,43.2S147,75.5,114.8,70.3z"/>
		
			<linearGradient id="SVGID_3_" gradientUnits="userSpaceOnUse" x1="299.9347" y1="711.4371" x2="380.7749" y2="711.4371" gradientTransform="matrix(0.2968 0.9549 -0.9549 0.2968 711.2308 -454.4835)">
			<stop  offset="0.2573" style="stop-color:#FFFFFF"/>
			<stop  offset="1" style="stop-color:#00A0E0"/>
		</linearGradient>
		<path class="st2" d="M127.5,115.5c-32.3-5.2-56-24.5-53-43.2s31.6-29.6,63.9-24.4s56,24.5,53,43.2S159.7,120.7,127.5,115.5z"/>
		
			<linearGradient id="SVGID_4_" gradientUnits="userSpaceOnUse" x1="346.4504" y1="711.4371" x2="427.2906" y2="711.4371" gradientTransform="matrix(0.2968 0.9549 -0.9549 0.2968 711.2308 -454.4835)">
			<stop  offset="0.2573" style="stop-color:#FFFFFF"/>
			<stop  offset="1" style="stop-color:#00A0E0"/>
		</linearGradient>
		<path class="st3" d="M141.3,159.9c-32.3-5.2-56-24.5-53-43.2s31.6-29.6,63.9-24.4c32.3,5.2,56,24.5,53,43.2
			S173.5,165.1,141.3,159.9z"/>
		
			<linearGradient id="SVGID_5_" gradientUnits="userSpaceOnUse" x1="393.653" y1="711.4371" x2="474.4932" y2="711.4371" gradientTransform="matrix(0.2968 0.9549 -0.9549 0.2968 711.2308 -454.4835)">
			<stop  offset="0.2573" style="stop-color:#FFFFFF"/>
			<stop  offset="1" style="stop-color:#00A0E0"/>
		</linearGradient>
		<path class="st4" d="M155.3,205c-32.3-5.2-56-24.5-53-43.2s31.6-29.6,63.9-24.4c32.3,5.2,56,24.5,53,43.2S187.6,210.2,155.3,205z"
			/>
		
			<linearGradient id="SVGID_6_" gradientUnits="userSpaceOnUse" x1="441.2156" y1="711.4371" x2="522.0558" y2="711.4371" gradientTransform="matrix(0.2968 0.9549 -0.9549 0.2968 711.2308 -454.4835)">
			<stop  offset="0.2573" style="stop-color:#FFFFFF"/>
			<stop  offset="1" style="stop-color:#00A0E0"/>
		</linearGradient>
		<path class="st5" d="M169.4,250.4c-32.3-5.2-56-24.5-53-43.2s31.6-29.6,63.9-24.4s56,24.5,53,43.2
			C230.3,244.7,201.7,255.6,169.4,250.4z"/>
		
			<linearGradient id="SVGID_7_" gradientUnits="userSpaceOnUse" x1="488.3207" y1="711.4371" x2="569.1608" y2="711.4371" gradientTransform="matrix(0.2968 0.9549 -0.9549 0.2968 711.2308 -454.4835)">
			<stop  offset="0.2573" style="stop-color:#FFFFFF"/>
			<stop  offset="1" style="stop-color:#00A0E0"/>
		</linearGradient>
		<path class="st6" d="M183.4,295.4c-32.3-5.2-56-24.5-53-43.2s31.6-29.6,63.9-24.4c32.3,5.2,56,24.5,53,43.2
			S215.7,300.6,183.4,295.4z"/>
	</g>
	<g>
		<linearGradient id="SVGID_8_" gradientUnits="userSpaceOnUse" x1="92.8027" y1="180.9071" x2="244.5857" y2="180.9071">
			<stop  offset="0" style="stop-color:#000000"/>
			<stop  offset="0.5927" style="stop-color:#0BAA4B"/>
			<stop  offset="0.654" style="stop-color:#088239"/>
			<stop  offset="0.735" style="stop-color:#055425"/>
			<stop  offset="0.8126" style="stop-color:#032F15"/>
			<stop  offset="0.8847" style="stop-color:#011509"/>
			<stop  offset="0.9493" style="stop-color:#000602"/>
			<stop  offset="1" style="stop-color:#000000"/>
		</linearGradient>
		<path class="st7" d="M97.8,209.8c0.1-1-0.1,0.8,0-0.3c0.2-1.1,0.4-2.2,0.6-3.3c0.8-3.8,2.1-7.6,3.6-11.2
			c4.9-11.3,13.1-21,23.6-27.5c17.4-10.7,39.2-12.5,59.1-10.5c15.5,1.6,31.3,6.6,43.1,17.1c3.6,3.2,6.9,6.9,9.5,11
			c0.7,1.1,1.3,2.3,2,3.5c0.5,1.1,0.5,1.1,0.4,0.8c1.9,5,9.9,2.8,8.1-2.2c-7.9-21.2-32.2-33.4-53-37.2c-36-6.7-79.1,1.2-97.7,36
			c-3.9,7.2-6.9,15.4-7.7,23.6C88.9,215.2,97.3,215.1,97.8,209.8L97.8,209.8z"/>
	</g>
	<g>
		<linearGradient id="SVGID_9_" gradientUnits="userSpaceOnUse" x1="66.0628" y1="99.0175" x2="217.8458" y2="99.0175">
			<stop  offset="0" style="stop-color:#000000"/>
			<stop  offset="0.5927" style="stop-color:#0BAA4B"/>
			<stop  offset="0.654" style="stop-color:#088239"/>
			<stop  offset="0.735" style="stop-color:#055425"/>
			<stop  offset="0.8126" style="stop-color:#032F15"/>
			<stop  offset="0.8847" style="stop-color:#011509"/>
			<stop  offset="0.9493" style="stop-color:#000602"/>
			<stop  offset="1" style="stop-color:#000000"/>
		</linearGradient>
		<path class="st8" d="M71.1,127.9c0.1-1-0.1,0.8,0-0.3c0.2-1.1,0.4-2.2,0.6-3.3c0.8-3.8,2.1-7.6,3.6-11.2
			c4.9-11.3,13.1-21,23.6-27.5c17.4-10.7,39.2-12.5,59.1-10.5c15.5,1.6,31.3,6.6,43.1,17.1c3.6,3.2,6.9,6.9,9.5,11
			c0.7,1.1,1.3,2.3,2,3.5c0.5,1.1,0.5,1.1,0.4,0.8c1.9,5,9.9,2.8,8.1-2.2c-7.9-21.2-32.2-33.4-53-37.2c-36-6.7-79.1,1.2-97.7,36
			c-3.9,7.2-6.9,15.4-7.7,23.6C62.2,133.3,70.6,133.2,71.1,127.9L71.1,127.9z"/>
	</g>
</g>
</svg>
