<svg xmlns="http://www.w3.org/2000/svg" xmlns:xlink="http://www.w3.org/1999/xlink" viewBox="0 0 120 120"><defs><linearGradient id="a" x1="-11.5" y1="139.43" x2="116.24" y2="-5.5" gradientUnits="userSpaceOnUse"><stop offset="0" stop-color="#340f93"/><stop offset="0.24" stop-color="#340f95"/><stop offset="0.34" stop-color="#350e9c"/><stop offset="0.41" stop-color="#370ca8"/><stop offset="0.46" stop-color="#3a0ab9"/><stop offset="0.51" stop-color="#3d07d0"/><stop offset="0.55" stop-color="#4103eb"/><stop offset="0.58" stop-color="#40f"/><stop offset="0.66" stop-color="#4202f2"/><stop offset="0.8" stop-color="#3d07cf"/><stop offset="0.99" stop-color="#340f96"/><stop offset="1" stop-color="#340f93"/></linearGradient></defs><title>landingpagefinaledits_chris</title><path d="M104.74,32.24c-1.46,29.32,4,58.45,5.74,87.76H120V0H109a181.16,181.16,0,0,0-3.45,21.44Q105,26.83,104.74,32.24Z" fill="none"/><path d="M3.24,8c3,.52,5.95,1,8.94,1.33a67,67,0,0,1,8.22.89c14.8,4,29.7,2.72,44.53-.21,3-.59,5.92-1.24,8.88-1.93C86,5.08,97,3.05,109,0H0V7.42C1.08,7.63,2.16,7.85,3.24,8Z" fill="none"/><path d="M64.93,10.05C50.1,13,35.2,14.27,20.4,10.26a67,67,0,0,0-8.22-.89c-3-.36-6-.81-8.94-1.33C2.16,7.85,1.08,7.63,0,7.42v7.87L105,120h5.45c-1.76-29.31-7.2-58.44-5.74-87.76q.27-5.42.81-10.8A181.16,181.16,0,0,1,109,0C97,3.05,86,5.08,73.81,8.12,70.85,8.81,67.89,9.46,64.93,10.05Z" fill="url(#a)"/><polygon points="0 120 105.03 120 0 15.29 0 120" fill="#fddd00"/></svg>